<svg clip-rule="evenodd" stroke-linejoin="round" stroke-miterlimit="1.414" viewBox="0 0 24 24" xml:space="preserve" xmlns="http://www.w3.org/2000/svg"><path d="M19 20H4a2 2 0 0 1-2-2V6c0-1.11.89-2 2-2h6l2 2h7c1.097 0 2 .903 2 2H4v10l2.14-8h17.07l-2.28 8.5c-.23.87-1.01 1.5-1.93 1.5z" fill="#ff5252"/><path d="M16.999 8.542a1.223 1.223 0 0 1 .612 2.282v.776h.611a4.282 4.282 0 0 1 4.282 4.282h.612a.611.611 0 0 1 .611.612v1.835a.612.612 0 0 1-.611.611h-.612v.612a1.223 1.223 0 0 1-1.223 1.223h-8.564a1.223 1.223 0 0 1-1.223-1.223v-.612h-.612a.611.611 0 0 1-.611-.611v-1.835a.612.612 0 0 1 .611-.612h.612a4.282 4.282 0 0 1 4.282-4.282h.611v-.776A1.224 1.224 0 0 1 17 8.542zm-2.752 6.729a1.529 1.529 0 1 0 0 3.057 1.529 1.529 0 0 0 0-3.057zm5.505 0a1.529 1.529 0 1 0 0 3.057 1.529 1.529 0 0 0 0-3.057z" fill="#ffcdd2" fill-rule="evenodd"/></svg>