<svg clip-rule="evenodd" stroke-linejoin="round" stroke-miterlimit="1.414" viewBox="0 0 24 24" xml:space="preserve" xmlns="http://www.w3.org/2000/svg"><path d="M19 20H4a2 2 0 0 1-2-2V6c0-1.11.89-2 2-2h6l2 2h7c1.097 0 2 .903 2 2H4v10l2.14-8h17.07l-2.28 8.5c-.23.87-1.01 1.5-1.93 1.5z" fill="#ff7043"/><path d="M22.707 13.269c-.178-.232-.395-.434-.597-.632-.518-.458-1.11-.79-1.604-1.273a3.794 3.794 0 0 1-.676-4.391c-.74.178-1.381.577-1.929 1.011a6.02 6.02 0 0 0-1.86 6.834.557.557 0 0 1 .064.252.43.43 0 0 1-.271.385c-.178.079-.365.03-.514-.094a3.81 3.81 0 0 1-.532-4.06 5.442 5.442 0 0 0-1.9 4.475c.05.384.094.77.227 1.154.103.46.316.918.548 1.327a5.428 5.428 0 0 0 3.848 2.468c1.653.212 3.43-.09 4.703-1.224a4.515 4.515 0 0 0 1.184-5.068l-.099-.197c-.163-.355-.597-.967-.597-.967m-2.447 4.836c-.222.182-.578.38-.854.458-.868.306-1.737-.123-2.25-.631a2.142 2.142 0 0 0 1.638-1.574c.129-.612-.118-1.12-.217-1.707a2.813 2.813 0 0 1 .128-1.58c.148.287.306.578.494.81.592.77 1.53 1.105 1.732 2.151.03.104.05.212.05.326a2.334 2.334 0 0 1-.721 1.746z" fill="#ffccbc"/></svg>