<svg fill="none" viewBox="0 0 220 220" xmlns="http://www.w3.org/2000/svg"><path d="M116.465 158.115c0-23.13 18.75-41.878 41.878-41.878s41.878 18.749 41.878 41.878c0 23.128-18.75 41.878-41.878 41.878s-41.878-18.75-41.878-41.878z" fill="#78909c"/><path d="M116.465 61.888c0-23.129 18.75-41.879 41.878-41.879s41.878 18.75 41.878 41.879v37.69a4.188 4.188 0 0 1-4.188 4.188h-75.38a4.188 4.188 0 0 1-4.188-4.188z" fill="#b0bec5"/><path d="M103.533 158.115c0 23.128-18.75 41.878-41.878 41.878s-41.878-18.75-41.878-41.878v-37.69a4.188 4.188 0 0 1 4.188-4.188h75.38a4.188 4.188 0 0 1 4.188 4.188z" fill="#546e7a"/></svg>