<svg xmlns="http://www.w3.org/2000/svg" viewBox="0 0 48 48" width="48" height="48" preserveAspectRatio="xMidYMid meet" style="width: 100%; height: 100%; transform: translate3d(0px, 0px, 0px);"><defs><clipPath id="__lottie_element_336"><rect width="48" height="48" x="0" y="0"></rect></clipPath></defs><g clip-path="url(#__lottie_element_336)"><g transform="matrix(0.9966769218444824,0.0814562737941742,-0.0814562737941742,0.9966769218444824,2.0347042083740234,-1.8751964569091797)" opacity="1" style="display: block;"><g opacity="1" transform="matrix(1,0,0,1,24,24)"><path stroke-linecap="butt" stroke-linejoin="miter" fill-opacity="0" stroke-miterlimit="10" stroke="white" stroke-opacity="1" stroke-width="4" d=" M-13.869999885559082,11.473999977111816 C-16.448999404907227,8.359000205993652 -18,4.360000133514404 -18,0 C-18,-9.177000045776367 -11.131999969482422,-16.75 -2.256999969482422,-17.860000610351562"></path></g></g><g transform="matrix(0.9966769218444824,0.0814562737941742,-0.0814562737941742,0.9966769218444824,2.0347042083740234,-1.8751964569091797)" opacity="1" style="display: block;"><g opacity="1" transform="matrix(1,0,0,1,24,24)"><path stroke-linecap="butt" stroke-linejoin="miter" fill-opacity="0" stroke-miterlimit="10" stroke="white" stroke-opacity="1" stroke-width="4" d=" M13.710000038146973,-11.663999557495117 C16.385000228881836,-8.52299976348877 18,-4.449999809265137 18,0 C18,0 18,0 18,0 C18,9.092000007629395 11.258999824523926,16.608999252319336 2.503000020980835,17.82699966430664"></path></g></g><g transform="matrix(0.9966769218444824,0.0814562737941742,-0.0814562737941742,0.9966769218444824,2.0347042083740234,-1.8751964569091797)" opacity="1" style="display: block;"><g opacity="1" transform="matrix(1,0,0,1,10.5,35)"><path fill="white" fill-opacity="1" d=" M5.848019599914551,5.564568519592285 C5.848019599914551,5.564568519592285 -6.8891706466674805,6.114840507507324 -6.8891706466674805,6.114840507507324 C-6.8891706466674805,6.114840507507324 5.017563343048096,-5.729251861572266 5.017563343048096,-5.729251861572266 C5.017563343048096,-5.729251861572266 5.848019599914551,5.564568519592285 5.848019599914551,5.564568519592285z"></path></g></g><g transform="matrix(0.9966769218444824,0.0814562737941742,-0.0814562737941742,0.9966769218444824,2.0347042083740234,-1.8751964569091797)" opacity="1" style="display: block;"><g opacity="1" transform="matrix(1,0,0,1,37.5,13.00100040435791)"><path fill="white" fill-opacity="1" d=" M-5.569190502166748,-5.213580131530762 C-5.569190502166748,-5.213580131530762 7.336053848266602,-4.979984760284424 7.336053848266602,-4.979984760284424 C7.336053848266602,-4.979984760284424 -5.034134387969971,6.2260026931762695 -5.034134387969971,6.2260026931762695 C-5.034134387969971,6.2260026931762695 -5.569190502166748,-5.213580131530762 -5.569190502166748,-5.213580131530762z"></path></g></g></g></svg>