<svg id="Слой_1" data-name="Слой 1" xmlns="http://www.w3.org/2000/svg" viewBox="0 0 410 371"><defs><style>.cls-1{fill:#fff;}</style></defs><title>Монтажная область 8</title><path class="cls-1" d="M216.35,60.53l-3.73-3.76L163.71,7.45h0L160,3.7A9.11,9.11,0,0,0,153.54,1H12.93A12,12,0,0,0,1,13V272.27a12,12,0,0,0,11.93,12H118.74v-9.77H12.93a2.26,2.26,0,0,1-2.24-2.26v-71H104a62.7,62.7,0,0,1,3.85-9.77H10.69V13a2.26,2.26,0,0,1,2.24-2.26H151.47a7.58,7.58,0,0,0-.28,1.91v56.7h56.24a7.4,7.4,0,0,0,1.89-.28v6.71a19,19,0,0,1,8.34-2.48c.46,0,.91,0,1.35,0V67A9.16,9.16,0,0,0,216.35,60.53Zm-55.47-.91V18.41l40.87,41.2Z"/><path class="cls-1" d="M59.53,247h5.9a20.75,20.75,0,0,0,7-1.13,15.8,15.8,0,0,0,5.43-3.2,14.23,14.23,0,0,0,3.51-5.11,17.57,17.57,0,0,0,1.26-6.78,13.53,13.53,0,0,0-1.49-6.38,15.61,15.61,0,0,0-3.91-4.84,16.62,16.62,0,0,0-5.46-3,19.56,19.56,0,0,0-6.16-1h-14v49.22h8Zm0-25.37h6a10.65,10.65,0,0,1,4.9,1A7.87,7.87,0,0,1,74.63,228a13.78,13.78,0,0,1,.33,2.77,15.13,15.13,0,0,1-.73,5A8.07,8.07,0,0,1,72.32,239a7.25,7.25,0,0,1-2.62,1.64,8.7,8.7,0,0,1-2.88.5H59.53Z"/><path class="cls-1" d="M104,241.11H99.61V221.62h1.84q-.09-3.08.08-6.08H91.66v49.22h8V247h5.89Q104.64,244.08,104,241.11Z"/><ellipse class="cls-1" cx="68.83" cy="93.8" rx="4.84" ry="4.88"/><ellipse class="cls-1" cx="68.83" cy="132.88" rx="4.84" ry="4.88"/><ellipse class="cls-1" cx="68.83" cy="113.34" rx="4.84" ry="4.88"/><ellipse class="cls-1" cx="78.52" cy="103.57" rx="4.84" ry="4.88"/><ellipse class="cls-1" cx="88.21" cy="93.8" rx="4.84" ry="4.88"/><ellipse class="cls-1" cx="78.52" cy="123.11" rx="4.84" ry="4.88"/><ellipse class="cls-1" cx="88.21" cy="132.88" rx="4.84" ry="4.88"/><ellipse class="cls-1" cx="88.21" cy="113.34" rx="4.84" ry="4.88"/><ellipse class="cls-1" cx="97.9" cy="103.57" rx="4.84" ry="4.88"/><ellipse class="cls-1" cx="107.59" cy="93.8" rx="4.84" ry="4.88"/><ellipse class="cls-1" cx="97.9" cy="123.11" rx="4.84" ry="4.88"/><ellipse class="cls-1" cx="107.59" cy="132.88" rx="4.84" ry="4.88"/><ellipse class="cls-1" cx="107.59" cy="113.34" rx="4.84" ry="4.88"/><ellipse class="cls-1" cx="117.28" cy="103.57" rx="4.84" ry="4.88"/><ellipse class="cls-1" cx="126.97" cy="93.8" rx="4.84" ry="4.88"/><ellipse class="cls-1" cx="117.28" cy="123.11" rx="4.84" ry="4.88"/><ellipse class="cls-1" cx="126.97" cy="132.88" rx="4.84" ry="4.88"/><ellipse class="cls-1" cx="126.97" cy="113.34" rx="4.84" ry="4.88"/><ellipse class="cls-1" cx="136.66" cy="103.57" rx="4.84" ry="4.88"/><ellipse class="cls-1" cx="146.34" cy="93.8" rx="4.84" ry="4.88"/><ellipse class="cls-1" cx="136.66" cy="123.11" rx="4.84" ry="4.88"/><ellipse class="cls-1" cx="146.34" cy="132.88" rx="4.84" ry="4.88"/><ellipse class="cls-1" cx="146.34" cy="113.34" rx="4.84" ry="4.88"/><path class="cls-1" d="M128.93,160.33a79.62,79.62,0,0,1,7.71-6l-1.12-1.88h4a86.7,86.7,0,0,1,26.24-11V74.27H112.43V64.5a4.84,4.84,0,1,0-9.69,0v9.77H49.45v78.15h30.2l-10.13,17a4.91,4.91,0,0,0,1.66,6.7,4.76,4.76,0,0,0,2.49.7,4.83,4.83,0,0,0,4.16-2.37l13.12-22.05h33.27Zm-11.65-22.56a4.87,4.87,0,0,0-4.84,4.88h-9.69a4.85,4.85,0,1,0-9.69,0H83.36a4.84,4.84,0,1,0-9.69,0H64a4.87,4.87,0,0,0-4.84-4.88V128a4.88,4.88,0,0,0,0-9.77v-9.77a4.88,4.88,0,0,0,0-9.77V88.92A4.87,4.87,0,0,0,64,84h9.69a4.84,4.84,0,1,0,9.69,0h9.69a4.85,4.85,0,1,0,9.69,0h9.69a4.84,4.84,0,1,0,9.69,0h9.69a4.84,4.84,0,1,0,9.69,0h9.69A4.87,4.87,0,0,0,156,88.92v9.77a4.88,4.88,0,0,0,0,9.77v9.77a4.88,4.88,0,0,0,0,9.77v9.77a4.87,4.87,0,0,0-4.84,4.88H141.5a4.84,4.84,0,1,0-9.69,0h-9.69A4.87,4.87,0,0,0,117.28,137.76Z"/><path class="cls-1" d="M406.41,132.1l-4-4L350.21,75.44l-4-4a9.74,9.74,0,0,0-6.87-2.87H189.24c-6.13,0-12.74,4.78-12.74,15.26v57.5a68.8,68.8,0,0,1,7.5-.42c1,0,1.9,0,2.84.07V83.81c0-1.13.17-4.83,2.39-4.83H337.14a8.09,8.09,0,0,0-.3,2v60.54h60a7.86,7.86,0,0,0,2-.3c0,.08,0,.11,0,.19V271.92H247.42a60.32,60.32,0,0,1-5.21,5.53,69.46,69.46,0,0,1-5.41,4.9H398.91v75.81a2.4,2.4,0,0,1-1.37,2.16,3,3,0,0,1-1,.26H189.24a3,3,0,0,1-1-.26,2.39,2.39,0,0,1-1.37-2.16V299.62a71.21,71.21,0,0,1-10.34-1.06v62c0,4.36,4.36,8.62,9.51,10,.26.07.51.17.78.22a12.51,12.51,0,0,0,2.46.25H396.52a12.51,12.51,0,0,0,2.46-.25c.27-.05.52-.15.78-.22,5.15-1.34,9.51-5.6,9.51-10V141.44C409.26,137.44,408.78,134.49,406.41,132.1Zm-59.22-1v-44l43.63,44Z"/><path class="cls-1" d="M256.89,301.87a17.74,17.74,0,0,0-5.83-3.21,20.88,20.88,0,0,0-6.57-1.07h-15v52.54H238v-19h6.29a22.15,22.15,0,0,0,7.49-1.21,16.87,16.87,0,0,0,5.8-3.42,15.19,15.19,0,0,0,3.75-5.45,18.76,18.76,0,0,0,1.34-7.24,14.44,14.44,0,0,0-1.59-6.81A16.74,16.74,0,0,0,256.89,301.87Zm-3.22,17.36a8.61,8.61,0,0,1-2,3.38,7.74,7.74,0,0,1-2.79,1.75,9.28,9.28,0,0,1-3.08.54H238V304.09h6.36a11.37,11.37,0,0,1,5.23,1,8.4,8.4,0,0,1,4.53,5.77,14.71,14.71,0,0,1,.35,3A16.16,16.16,0,0,1,253.67,319.23Z"/><path class="cls-1" d="M308.16,305.29a23.94,23.94,0,0,0-8.28-5.6,29.65,29.65,0,0,0-11.56-2.1h-15.7v52.54h19.73a27.91,27.91,0,0,0,3-.25,20.73,20.73,0,0,0,4.53-1.14,23.64,23.64,0,0,0,5.13-2.68,18.06,18.06,0,0,0,4.77-4.89,27.67,27.67,0,0,0,3.5-7.7,38.9,38.9,0,0,0,1.38-11.09,26.58,26.58,0,0,0-1.62-9.16A23.16,23.16,0,0,0,308.16,305.29Zm-6.19,33q-3.82,5.56-12.44,5.56h-8.42V304.08h5a25.85,25.85,0,0,1,9.9,1.61,15.86,15.86,0,0,1,6,4.21,13.92,13.92,0,0,1,3,5.81,27.5,27.5,0,0,1,.78,6.49Q305.79,332.74,302,338.3Z"/><polygon class="cls-1" points="327.01 350.14 335.63 350.14 335.63 326.47 357.42 326.47 357.42 320.63 335.63 320.63 335.63 304.08 359.6 304.08 359.6 297.6 327.01 297.6 327.01 350.14"/><path class="cls-1" d="M356.64,194.1c-2-3.91-6.9-5.81-15-5.81a99.34,99.34,0,0,0-17.37,1.87C314.81,180,304.93,165.23,298,150.72c6.92-29.35,3.46-33.51,1.93-35.47s-3.92-5.47-6.52-5.47a25.32,25.32,0,0,0-5.26.9c-3,1-4.58,3.32-5.87,6.34-3.66,8.62,1.36,23.31,6.52,34.64a352,352,0,0,1-19.59,56.06c-2.24,1-4.35,2.07-6.35,3.1a101.06,101.06,0,0,1,1.43,13,60.06,60.06,0,0,1-.85,12.69,148.51,148.51,0,0,0,12.3-22.13,246.39,246.39,0,0,1,45.66-14.72c8.17,7.91,15.49,11.92,21.78,11.92a13.7,13.7,0,0,0,11.48-6.21C357.62,201.13,358.31,197.35,356.64,194.1Zm-65.13-74.9c.22-.07,5.41,5.74.5,16.77C284.63,128.35,291,119.36,291.51,119.19Zm-10.69,83.57a373.78,373.78,0,0,0,13.83-39.44,178.55,178.55,0,0,0,19.77,28.91A256.12,256.12,0,0,0,280.82,202.76Zm66.73-2.5c-1.59,2.25-5,2.3-6.26,2.3-2.76,0-3.79-1.65-8-4.92a73.86,73.86,0,0,1,9.37-.56c4.6,0,5.44.68,6.08,1A8.11,8.11,0,0,1,347.55,200.27Z"/><path class="cls-1" d="M237,147.19a5.2,5.2,0,0,0-5.18,5.22v19.07a66.81,66.81,0,0,0-95,1.55,68,68,0,0,0-18.92,47.25,5.18,5.18,0,1,0,10.36,0c0-31.72,25.52-57.43,57-57.42a56.76,56.76,0,0,1,42,18.65l-22.94,7.71a5.24,5.24,0,0,0-3.28,6.61,5.18,5.18,0,0,0,6.56,3.31l31.07-10.44a5.22,5.22,0,0,0,3.54-5V152.41A5.2,5.2,0,0,0,237,147.19Z"/><path class="cls-1" d="M247.34,215.06a5.2,5.2,0,0,0-5.18,5.22c0,31.72-25.52,57.43-57,57.42a56.76,56.76,0,0,1-42-18.65l22.94-7.71a5.24,5.24,0,0,0,3.28-6.61,5.18,5.18,0,0,0-6.56-3.31l-31.07,10.44a5.22,5.22,0,0,0-3.54,5v31.33a5.18,5.18,0,1,0,10.36,0V269.08a66.81,66.81,0,0,0,95-1.55,68,68,0,0,0,18.92-47.25A5.2,5.2,0,0,0,247.34,215.06Z"/></svg>