<svg id="Слой_1" data-name="Слой 1" xmlns="http://www.w3.org/2000/svg" viewBox="0 0 410 371"><defs><style>.cls-1{fill:#fff;}</style></defs><title>Монтажная область 4</title><path class="cls-1" d="M160.84,73.93h60a7.87,7.87,0,0,0,2-.3c0,.08,0,.11,0,.19v2.56A10.7,10.7,0,0,1,233.26,79V73.82c0-4-.48-6.94-2.84-9.33l-4-4L174.21,7.88l-4-4A9.75,9.75,0,0,0,163.35,1H13.24C7.11,1,.5,5.77.5,16.24V292.73c0,4.36,4.36,8.61,9.51,10,.26.07.51.17.78.22a12.52,12.52,0,0,0,2.46.25H126.12v-8.73c0-.57,0-1.13.07-1.69H13.24a3,3,0,0,1-1-.26,2.39,2.39,0,0,1-1.37-2.16V214.59h95.87a61.92,61.92,0,0,1,2-10.42H10.84V16.24c0-1.13.17-4.82,2.39-4.82H161.14a8.07,8.07,0,0,0-.3,2Zm10.34-54.36,43.63,43.94H171.19Z"/><path class="cls-1" d="M80.89,234.1a17.75,17.75,0,0,0-5.83-3.2,20.9,20.9,0,0,0-6.57-1.07h-15v52.49H62V263.37h6.29a22.17,22.17,0,0,0,7.49-1.21,16.87,16.87,0,0,0,5.8-3.42,15.18,15.18,0,0,0,3.75-5.45,18.73,18.73,0,0,0,1.34-7.23,14.42,14.42,0,0,0-1.59-6.8A16.72,16.72,0,0,0,80.89,234.1Zm-3.22,17.34a8.6,8.6,0,0,1-2,3.38,7.74,7.74,0,0,1-2.79,1.75,9.29,9.29,0,0,1-3.08.54H62V236.3h6.36a11.38,11.38,0,0,1,5.23,1,8.4,8.4,0,0,1,4.53,5.77,14.69,14.69,0,0,1,.35,3A16.13,16.13,0,0,1,77.67,251.44Z"/><path class="cls-1" d="M122.69,273.69a16.41,16.41,0,0,1-9.17,2.36h-8.42V236.3h2.55c-.34-2.15-.6-4.31-.81-6.48H96.62v52.49h19.73a27.93,27.93,0,0,0,3-.25,20.75,20.75,0,0,0,4.53-1.14,21.63,21.63,0,0,0,3.47-1.65A65.16,65.16,0,0,1,122.69,273.69Z"/><path class="cls-1" d="M165.64,120.62a99.43,99.43,0,0,0-17.37,1.87c-9.47-10.12-19.34-24.89-26.32-39.39,6.92-29.32,3.46-33.48,1.93-35.44s-3.92-5.46-6.52-5.46a25.34,25.34,0,0,0-5.26.9c-3,1-4.58,3.31-5.87,6.33C102.59,58,107.61,72.7,112.77,84a351.37,351.37,0,0,1-19.59,56c-19.6,9-30,17.93-31,26.4-.34,3.08.38,7.61,5.77,11.68a8.27,8.27,0,0,0,5,1.7h0c4.53,0,9.1-3.49,14.39-11A148.11,148.11,0,0,0,99.7,146.68,246.57,246.57,0,0,1,145.36,132c8.17,7.9,15.49,11.9,21.78,11.9a13.71,13.71,0,0,0,11.48-6.2c3-4.22,3.68-8,2-11.25C178.65,122.52,173.74,120.62,165.64,120.62ZM73.1,171c-2.42-1.87-2.28-3.13-2.23-3.61.32-2.9,4.83-8,15.88-14.29C78.37,168.7,73.87,170.76,73.1,171ZM115.51,51.6c.22-.07,5.41,5.74.5,16.75C108.63,60.75,115,51.77,115.51,51.6Zm-10.69,83.49a373.17,373.17,0,0,0,13.83-39.41,178.37,178.37,0,0,0,19.77,28.88A256.3,256.3,0,0,0,104.82,135.08Zm66.73-2.5c-1.59,2.25-5,2.3-6.26,2.3-2.76,0-3.79-1.65-8-4.92a73.93,73.93,0,0,1,9.37-.56c4.6,0,5.44.68,6.08,1A8.11,8.11,0,0,1,171.55,132.59Z"/><path class="cls-1" d="M408.16,133.85l-4-4L348.1,73.35a9.73,9.73,0,0,0-6.85-2.86H191.45c-6.12,0-12.71,4.76-12.71,15.21v58.61c2.09-.18,4.18-.3,6.26-.3q2,0,4.06.11V85.71c0-1.13.17-4.81,2.39-4.81H339a8.06,8.06,0,0,0-.3,2v60.35h59.92a7.85,7.85,0,0,0,2-.3c0,.08,0,.11,0,.19V273.23H246.28a62.86,62.86,0,0,1-5.66,6c-1.51,1.52-3.11,3-4.76,4.35H400.68V359.2a2.39,2.39,0,0,1-1.37,2.15,3,3,0,0,1-1,.25H191.45a3,3,0,0,1-1-.25,2.38,2.38,0,0,1-1.37-2.15V302.36c-1.36.08-2.71.12-4.06.12-2.11,0-4.19-.11-6.26-.29V361.6c0,4.35,4.35,8.59,9.49,9.93.26.07.51.17.77.22a12.49,12.49,0,0,0,2.45.25H398.29a12.49,12.49,0,0,0,2.45-.25c.27-.05.52-.15.77-.22,5.14-1.34,9.49-5.58,9.49-9.93V143.16C411,139.17,410.53,136.23,408.16,133.85Zm-59.1-1V89l43.54,43.85Z"/><path class="cls-1" d="M265.12,306.5a23.89,23.89,0,0,0-8.26-5.58,29.61,29.61,0,0,0-11.54-2.09H229.66v52.38h19.69a27.88,27.88,0,0,0,3-.25,20.71,20.71,0,0,0,4.52-1.14,23.6,23.6,0,0,0,5.11-2.67,18,18,0,0,0,4.76-4.87,27.57,27.57,0,0,0,3.49-7.68,38.74,38.74,0,0,0,1.38-11.05,26.47,26.47,0,0,0-1.62-9.13A23,23,0,0,0,265.12,306.5Zm-6.17,32.91q-3.81,5.54-12.42,5.54h-8.4V305.29h4.94a25.81,25.81,0,0,1,9.88,1.6,15.83,15.83,0,0,1,6,4.2,13.87,13.87,0,0,1,3,5.79,27.39,27.39,0,0,1,.77,6.47Q262.75,333.86,258.94,339.41Z"/><path class="cls-1" d="M316.88,304.8a19.62,19.62,0,0,0-6.84-5.08,22,22,0,0,0-17.15,0,19.62,19.62,0,0,0-6.84,5.08,23.92,23.92,0,0,0-4.59,8.35,41.69,41.69,0,0,0,0,23.27,23.74,23.74,0,0,0,4.59,8.38,19.21,19.21,0,0,0,6.84,5,22.4,22.4,0,0,0,17.15,0,19.21,19.21,0,0,0,6.84-5,23.94,23.94,0,0,0,4.59-8.38,41.69,41.69,0,0,0,0-23.27A24,24,0,0,0,316.88,304.8ZM313.39,334a17.26,17.26,0,0,1-2.93,6.15,11.08,11.08,0,0,1-4.23,3.37,12.35,12.35,0,0,1-5,1,11,11,0,0,1-4.84-1.1,11.29,11.29,0,0,1-4.09-3.48,17.93,17.93,0,0,1-2.82-6.15,37,37,0,0,1-1.09-9.1,36.25,36.25,0,0,1,1.13-9.24,17.66,17.66,0,0,1,2.93-6.15A10.66,10.66,0,0,1,296.7,306a12.64,12.64,0,0,1,5-1,11.34,11.34,0,0,1,4.84,1.07,10.86,10.86,0,0,1,4.09,3.48,18.35,18.35,0,0,1,2.82,6.15,38.34,38.34,0,0,1,0,18.33Z"/><path class="cls-1" d="M346.8,309.38A10.66,10.66,0,0,1,351,306a12.64,12.64,0,0,1,5-1,11.28,11.28,0,0,1,4.48.93,10.76,10.76,0,0,1,3.92,3l5.86-5.26a19.24,19.24,0,0,0-6.56-4.26,21.6,21.6,0,0,0-7.9-1.42,20.85,20.85,0,0,0-8.54,1.74,19.52,19.52,0,0,0-6.88,5.08,23.92,23.92,0,0,0-4.59,8.35,41.69,41.69,0,0,0,0,23.27,23.74,23.74,0,0,0,4.59,8.38,19.21,19.21,0,0,0,6.84,5,21.23,21.23,0,0,0,8.57,1.71,21.71,21.71,0,0,0,7.9-1.42,19.26,19.26,0,0,0,6.56-4.26l-5.86-5.19a11.13,11.13,0,0,1-4.06,3,12.34,12.34,0,0,1-4.76.93,11,11,0,0,1-4.84-1.1,11.29,11.29,0,0,1-4.09-3.48,17.93,17.93,0,0,1-2.82-6.15,37,37,0,0,1-1.09-9.1,36.25,36.25,0,0,1,1.13-9.24A17.6,17.6,0,0,1,346.8,309.38Z"/><path class="cls-1" d="M214.87,143.27h31a5.2,5.2,0,0,0,0-10.4h-31a5.2,5.2,0,0,0,0,10.4Z"/><path class="cls-1" d="M261.32,158.87H247.07a10.24,10.24,0,0,1,.56,3.28v7.12h13.7a5.2,5.2,0,0,0,0-10.4Z"/><path class="cls-1" d="M282,169.26a5.41,5.41,0,0,0,3.66-1.51,5.3,5.3,0,0,0,0-7.38,5.38,5.38,0,0,0-7.33,0,5.3,5.3,0,0,0,0,7.38A5.41,5.41,0,0,0,282,169.26Z"/><path class="cls-1" d="M302.61,169.26H343.9a5.2,5.2,0,0,0,0-10.4H302.61a5.2,5.2,0,0,0,0,10.4Z"/><path class="cls-1" d="M276.81,236.84H262.72a58.89,58.89,0,0,1-2.9,10.4h17a5.2,5.2,0,0,0,0-10.4Z"/><path class="cls-1" d="M374.87,158.87H364.55a5.2,5.2,0,0,0,0,10.4h10.32a5.2,5.2,0,0,0,0-10.4Z"/><path class="cls-1" d="M328.42,184.86H253.94a78.09,78.09,0,0,1,4.49,10.4h70a5.2,5.2,0,0,0,0-10.4Z"/><path class="cls-1" d="M374.87,184.86h-31a5.2,5.2,0,0,0,0,10.4h31a5.2,5.2,0,0,0,0-10.4Z"/><path class="cls-1" d="M307.77,210.85h-45.4c.57,3.46.95,6.93,1.16,10.4h44.23a5.2,5.2,0,0,0,0-10.4Z"/><path class="cls-1" d="M374.87,210.85H328.42a5.2,5.2,0,0,0,0,10.4h46.45a5.2,5.2,0,0,0,0-10.4Z"/><path class="cls-1" d="M240,151.07a5.2,5.2,0,0,0-5.18,5.22v19.05a66.86,66.86,0,0,0-95,1.55,67.93,67.93,0,0,0-18.92,47.2,5.18,5.18,0,1,0,10.36,0,56.88,56.88,0,0,1,99-38.73l-22.94,7.7a5.23,5.23,0,0,0-3.28,6.6,5.18,5.18,0,0,0,6.56,3.31l31.07-10.43a5.21,5.21,0,0,0,3.54-5v-31.3A5.2,5.2,0,0,0,240,151.07Z"/><path class="cls-1" d="M250.34,218.88a5.2,5.2,0,0,0-5.18,5.22,56.88,56.88,0,0,1-99,38.73l22.94-7.7a5.23,5.23,0,0,0,3.28-6.6,5.18,5.18,0,0,0-6.56-3.31l-31.07,10.43a5.21,5.21,0,0,0-3.54,5v31.3a5.18,5.18,0,1,0,10.36,0V272.85a66.86,66.86,0,0,0,95-1.55,67.93,67.93,0,0,0,18.92-47.2A5.2,5.2,0,0,0,250.34,218.88Z"/></svg>