<svg id="Слой_1" data-name="Слой 1" xmlns="http://www.w3.org/2000/svg" viewBox="0 0 410 371"><defs><style>.cls-1{fill:#fff;}</style></defs><title>Монтажная область 5</title><path class="cls-1" d="M407.41,132.75l-4-4-52.22-52.5-4-4a9.76,9.76,0,0,0-6.87-2.86H190.24c-6.13,0-12.74,4.76-12.74,15.22v57.34a69,69,0,0,1,7.5-.42c1,0,1.9,0,2.84.07v-57c0-1.13.17-4.82,2.39-4.82H338.14a8,8,0,0,0-.3,2v60.37h60a7.88,7.88,0,0,0,2-.3c0,.08,0,.11,0,.19V272.19H248.42a60.22,60.22,0,0,1-5.21,5.52,69.4,69.4,0,0,1-5.41,4.88H399.91v75.6a2.39,2.39,0,0,1-1.37,2.15,3,3,0,0,1-1,.25H190.24a3,3,0,0,1-1-.25,2.38,2.38,0,0,1-1.37-2.15V299.81a71.4,71.4,0,0,1-10.34-1.06V360.6c0,4.35,4.36,8.6,9.51,9.93.26.07.51.17.78.22a12.54,12.54,0,0,0,2.46.25H397.52a12.54,12.54,0,0,0,2.46-.25c.27-.05.52-.15.78-.22,5.15-1.34,9.51-5.58,9.51-9.93V142.06C410.26,138.07,409.78,135.13,407.41,132.75Zm-59.22-1V87.91l43.63,43.87Z"/><path class="cls-1" d="M257.89,302.06a17.75,17.75,0,0,0-5.83-3.2,20.93,20.93,0,0,0-6.57-1.07h-15v52.4H239V331.28h6.29a22.2,22.2,0,0,0,7.49-1.21,16.88,16.88,0,0,0,5.8-3.41,15.15,15.15,0,0,0,3.75-5.44,18.67,18.67,0,0,0,1.34-7.22,14.37,14.37,0,0,0-1.59-6.79A16.7,16.7,0,0,0,257.89,302.06Zm-3.22,17.31a8.58,8.58,0,0,1-2,3.38,7.75,7.75,0,0,1-2.79,1.74,9.31,9.31,0,0,1-3.08.54H239V304.27h6.36a11.4,11.4,0,0,1,5.23,1,8.38,8.38,0,0,1,4.53,5.76,14.64,14.64,0,0,1,.35,2.95A16.08,16.08,0,0,1,254.67,319.37Z"/><path class="cls-1" d="M309.16,305.47a24,24,0,0,0-8.28-5.58,29.72,29.72,0,0,0-11.56-2.1h-15.7v52.4h19.73a28,28,0,0,0,3-.25,20.78,20.78,0,0,0,4.53-1.14,23.66,23.66,0,0,0,5.13-2.67,18,18,0,0,0,4.77-4.87,27.55,27.55,0,0,0,3.5-7.68,38.69,38.69,0,0,0,1.38-11.06,26.44,26.44,0,0,0-1.62-9.14A23.09,23.09,0,0,0,309.16,305.47ZM303,338.39q-3.82,5.55-12.44,5.54h-8.42V304.26h5a25.91,25.91,0,0,1,9.9,1.6,15.86,15.86,0,0,1,6,4.2,13.87,13.87,0,0,1,3,5.79,27.36,27.36,0,0,1,.78,6.47Q306.79,332.85,303,338.39Z"/><polygon class="cls-1" points="328.01 350.2 336.63 350.2 336.63 326.59 358.42 326.59 358.42 320.76 336.63 320.76 336.63 304.27 360.6 304.27 360.6 297.8 328.01 297.8 328.01 350.2"/><path class="cls-1" d="M357.64,194.58c-2-3.9-6.9-5.8-15-5.8a99.6,99.6,0,0,0-17.37,1.86c-9.47-10.1-19.34-24.85-26.32-39.33,6.92-29.27,3.46-33.42,1.93-35.37s-3.92-5.46-6.52-5.46a25.39,25.39,0,0,0-5.26.89c-3,1-4.58,3.31-5.87,6.32-3.66,8.6,1.36,23.25,6.52,34.55a350.36,350.36,0,0,1-19.59,55.91c-2.24,1-4.35,2.06-6.35,3.09a100.52,100.52,0,0,1,1.43,13,59.74,59.74,0,0,1-.85,12.66,148,148,0,0,0,12.3-22.07,246.87,246.87,0,0,1,45.66-14.68C330.54,208,337.86,212,344.14,212a13.71,13.71,0,0,0,11.48-6.19C358.62,201.59,359.31,197.82,357.64,194.58Zm-65.13-74.7c.22-.07,5.41,5.73.5,16.72C285.63,129,292,120,292.51,119.88Zm-10.69,83.34a372.09,372.09,0,0,0,13.83-39.34,178,178,0,0,0,19.77,28.83A256.62,256.62,0,0,0,281.82,203.22Zm66.73-2.49c-1.59,2.24-5,2.29-6.26,2.29-2.76,0-3.79-1.65-8-4.91a74.06,74.06,0,0,1,9.37-.56c4.6,0,5.44.68,6.08,1A8.08,8.08,0,0,1,348.55,200.73Z"/><path class="cls-1" d="M151.14,69.23h56.27a7.39,7.39,0,0,0,1.89-.28c0,.07,0,.1,0,.18v4.45a17.54,17.54,0,0,1,3,2.55A27.12,27.12,0,0,1,219,73.29V69.12c0-3.74-.45-6.5-2.67-8.73l-3.74-3.76L163.67,7.44l-3.74-3.76A9.14,9.14,0,0,0,153.49,1H12.82C7.07,1,.88,5.46.88,15.26V273.91C.88,278,5,282,9.79,283.22c.24.06.48.16.73.2a11.75,11.75,0,0,0,2.3.23H123.17c0-.55,0-1.09,0-1.64v-2.51q0-2.75.19-5.44l-.13-.15H12.82a2.78,2.78,0,0,1-1-.24,2.23,2.23,0,0,1-1.28-2V200.81h97a61.06,61.06,0,0,1,4-9.53l.08-.22H10.57V15.26c0-1.06.16-4.51,2.24-4.51h138.6a7.54,7.54,0,0,0-.28,1.91Zm9.69-50.85,40.89,41.11H160.83Z"/><path class="cls-1" d="M82,222.26A22.44,22.44,0,0,0,74.24,217a27.85,27.85,0,0,0-10.83-2H48.7v49.11H67.18a26.23,26.23,0,0,0,2.85-.23,19.47,19.47,0,0,0,4.24-1.07,22.18,22.18,0,0,0,4.8-2.5,16.9,16.9,0,0,0,4.47-4.57,25.82,25.82,0,0,0,3.28-7.2,36.26,36.26,0,0,0,1.29-10.36,24.78,24.78,0,0,0-1.52-8.56A21.57,21.57,0,0,0,82,222.26ZM76.2,253.1q-3.58,5.2-11.66,5.2H56.65V221.12h4.64a24.28,24.28,0,0,1,9.28,1.5,14.86,14.86,0,0,1,5.67,3.93A13,13,0,0,1,79,232a25.64,25.64,0,0,1,.73,6.06Q79.78,247.91,76.2,253.1Z"/><path class="cls-1" d="M112.8,257.48a10.42,10.42,0,0,1-1.41-.55,10.6,10.6,0,0,1-3.84-3.27,16.79,16.79,0,0,1-2.65-5.77,34.61,34.61,0,0,1-1-8.53,33.93,33.93,0,0,1,1.06-8.66c.11-.39.24-.75.36-1.12q-.42-3.71-.59-7.4-.08-2.18,0-4.33a19,19,0,0,0-3,2.79,22.41,22.41,0,0,0-4.31,7.83,39,39,0,0,0,0,21.82,22.24,22.24,0,0,0,4.31,7.86,18,18,0,0,0,6.43,4.73,20,20,0,0,0,8.05,1.6l.34,0A73.66,73.66,0,0,1,112.8,257.48Z"/><path class="cls-1" d="M34.81,69.23H63.89a4.87,4.87,0,0,0,0-9.75H34.81a4.87,4.87,0,0,0,0,9.75Z"/><path class="cls-1" d="M34.81,93.6H78.43a4.87,4.87,0,0,0,0-9.75H34.81a4.87,4.87,0,0,0,0,9.75Z"/><path class="cls-1" d="M97.82,93.6a5.08,5.08,0,0,0,3.44-1.41,5,5,0,0,0,0-6.92,5.05,5.05,0,0,0-6.88,0,5,5,0,0,0,0,6.92A5.08,5.08,0,0,0,97.82,93.6Z"/><path class="cls-1" d="M117.21,93.6H156a4.87,4.87,0,0,0,0-9.75H117.21a4.87,4.87,0,0,0,0,9.75Z"/><path class="cls-1" d="M31.37,158.36a5,5,0,0,0,0,6.92,4.9,4.9,0,0,0,6.88,0,5.14,5.14,0,0,0,1.41-3.46,4.85,4.85,0,0,0-8.29-3.46Z"/><path class="cls-1" d="M93,157H54.2a4.87,4.87,0,0,0,0,9.75H93A4.87,4.87,0,0,0,93,157Z"/><path class="cls-1" d="M184.14,86.53a18.12,18.12,0,0,1,.36-2.46l0-.22h-9.16a4.87,4.87,0,0,0,0,9.75h8.18C183.66,91.25,183.84,88.89,184.14,86.53Z"/><path class="cls-1" d="M34.81,118H141.45a4.87,4.87,0,0,0,0-9.75H34.81a4.87,4.87,0,0,0,0,9.75Z"/><path class="cls-1" d="M183.66,108.22H156a4.87,4.87,0,0,0,0,9.75h28C183.93,114.69,183.79,111.45,183.66,108.22Z"/><path class="cls-1" d="M34.81,142.33H54.2a4.87,4.87,0,0,0,0-9.75H34.81a4.87,4.87,0,0,0,0,9.75Z"/><path class="cls-1" d="M122.06,132.58H73.59a4.87,4.87,0,0,0,0,9.75h48.47a4.87,4.87,0,0,0,0-9.75Z"/><path class="cls-1" d="M183.45,132.58h-42a4.87,4.87,0,0,0,0,9.75h36c2.31-.23,4.63-.35,6.93-.36A56.33,56.33,0,0,1,183.45,132.58Z"/><path class="cls-1" d="M238,147.79A5.19,5.19,0,0,0,232.8,153v19a66.94,66.94,0,0,0-95,1.55,67.75,67.75,0,0,0-18.92,47.12,5.18,5.18,0,1,0,10.36,0,56.9,56.9,0,0,1,99-38.66l-22.94,7.69a5.21,5.21,0,0,0,3.27,9.89l31.07-10.41a5.21,5.21,0,0,0,3.54-5V153A5.19,5.19,0,0,0,238,147.79Z"/><path class="cls-1" d="M248.34,215.48a5.19,5.19,0,0,0-5.18,5.21,56.9,56.9,0,0,1-99,38.66l22.94-7.69a5.21,5.21,0,0,0-3.27-9.89l-31.07,10.41a5.21,5.21,0,0,0-3.54,5v31.24a5.18,5.18,0,1,0,10.36,0v-19a66.94,66.94,0,0,0,95-1.55,67.75,67.75,0,0,0,18.92-47.12A5.19,5.19,0,0,0,248.34,215.48Z"/></svg>