<svg id="Слой_1" data-name="Слой 1" xmlns="http://www.w3.org/2000/svg" viewBox="0 0 410 371"><defs><style>.cls-1{fill:#fff;}</style></defs><title>Монтажная область 1</title><path class="cls-1" d="M409.34,133.9l-3.73-4L356.82,77.43l-3.73-4a8.83,8.83,0,0,0-6.42-2.86H206.4c-5.73,0-11.9,4.76-11.9,15.21v56a77.48,77.48,0,0,1,9.67,1.36V85.77c0-1.13.16-4.81,2.24-4.81H344.61a8.56,8.56,0,0,0-.28,2v60.33h56.11a6.93,6.93,0,0,0,1.89-.3c0,.08,0,.11,0,.19v130H254.45a64.42,64.42,0,0,1-8.19,9.28c-.38.38-.78.74-1.16,1.11H402.33V359.2a2.4,2.4,0,0,1-1.28,2.15,2.63,2.63,0,0,1-1,.25H206.4a2.63,2.63,0,0,1-1-.25,2.4,2.4,0,0,1-1.28-2.15V305.05a79.56,79.56,0,0,1-9.67,1.39v55.16c0,4.35,4.07,8.59,8.88,9.93.24.07.47.17.72.22a11,11,0,0,0,2.3.25H400.1a11,11,0,0,0,2.3-.25c.25-.05.48-.15.72-.22,4.81-1.34,8.88-5.58,8.88-9.93V143.21C412,139.22,411.56,136.28,409.34,133.9Zm-55.34-1V89.09l40.77,43.84Z"/><polygon class="cls-1" points="270.51 298.84 261.19 320.16 260.53 320.16 251.94 298.84 242.89 298.84 256.04 325.77 243.68 351.21 252.87 351.21 261.19 331.46 261.86 331.46 269.59 351.21 278.77 351.21 266.42 325.77 279.57 298.84 270.51 298.84"/><polygon class="cls-1" points="298.6 298.84 290.53 298.84 290.53 351.21 321 351.21 321 344.75 298.6 344.75 298.6 298.84"/><path class="cls-1" d="M351.29,325.56a25.68,25.68,0,0,0-4.93-3q-2.65-1.24-4.89-2.56a14.89,14.89,0,0,1-3.77-3.06,6.72,6.72,0,0,1-1.52-4.58,6.06,6.06,0,0,1,.53-2.38,7.71,7.71,0,0,1,1.45-2.24,8.67,8.67,0,0,1,2.12-1.67,6.39,6.39,0,0,1,2.51-.82,22.49,22.49,0,0,1,3.9-.07,9.56,9.56,0,0,1,2.45.5,6.52,6.52,0,0,1,1.42.71,7.47,7.47,0,0,0,.89.57,6.68,6.68,0,0,0,.4-.71c.22-.43.48-1,.79-1.6l1-2.06c.35-.74.66-1.41.92-2a13,13,0,0,0-5-2,32.38,32.38,0,0,0-6.14-.6,16,16,0,0,0-5.65,1,14,14,0,0,0-4.69,2.88,13.73,13.73,0,0,0-3.2,4.58,15.21,15.21,0,0,0-1.19,6.18,12.32,12.32,0,0,0,1.52,6.39,16.56,16.56,0,0,0,3.83,4.44,30,30,0,0,0,5,3.27q2.64,1.39,4.93,2.77a16.53,16.53,0,0,1,3.8,3.09,6,6,0,0,1,1.52,4.12q0,4-2.15,6a8.67,8.67,0,0,1-6.18,2,15.72,15.72,0,0,1-2.84-.29,27,27,0,0,1-3-.75c-1-.31-2-.64-2.94-1a13.46,13.46,0,0,1-2.34-1.1l-1.39,6.11a10.34,10.34,0,0,0,2.68,1.81,16.85,16.85,0,0,0,3.27,1.17,24.2,24.2,0,0,0,3.4.6,32.32,32.32,0,0,0,3.27.18,17.09,17.09,0,0,0,6.61-1.21,14.21,14.21,0,0,0,8-7.92,14.34,14.34,0,0,0,1.09-5.51,13.74,13.74,0,0,0-1.52-6.86A15.24,15.24,0,0,0,351.29,325.56Z"/><path class="cls-1" d="M281.5,158.91V138.13h-58v11.76a89.89,89.89,0,0,1,9.67,5.56v-6.93h38.67v10.39H251.3V167a8.93,8.93,0,0,1-.31,2.3h20.84V179.7H257.62a76.54,76.54,0,0,1,5.32,10.39h8.89v10.39h-5.27a99.32,99.32,0,0,1,2.29,10.39h3v10.39h-1.76c.07,1,.14,1.91.18,2.86a67.45,67.45,0,0,1-.14,7.54h1.72v10.39h-3.37a61.8,61.8,0,0,1-3.58,10.39H383V158.91Zm91.83,83.16H281.5V231.68h91.83Zm0-20.79H281.5V210.89h91.83Zm0-20.79H281.5V190.1h91.83Zm0-20.79H281.5V169.31h91.83Z"/><path class="cls-1" d="M160.84,74h60a7.86,7.86,0,0,0,2-.3c0,.08,0,.11,0,.19v2.33a11.81,11.81,0,0,1,10.34.73V73.89c0-4-.48-7-2.84-9.34l-4-4L174.21,7.89l-4-4A9.74,9.74,0,0,0,163.35,1H13.24C7.11,1,.5,5.78.5,16.26V293c0,4.36,4.36,8.62,9.51,10,.26.07.51.17.78.22a12.51,12.51,0,0,0,2.46.25H126.6a28.33,28.33,0,0,1,.54-8.67,10.49,10.49,0,0,1,.56-1.76H13.24a3,3,0,0,1-1-.26,2.39,2.39,0,0,1-1.37-2.16V214.8h95.87a62,62,0,0,1,2-10.43H10.84V16.26c0-1.13.17-4.83,2.39-4.83H161.14a8.09,8.09,0,0,0-.3,2Zm10.34-54.41,43.63,44H171.19Z"/><path class="cls-1" d="M80.89,234.32a17.74,17.74,0,0,0-5.83-3.21A20.88,20.88,0,0,0,68.48,230h-15v52.54H62v-19h6.29a22.15,22.15,0,0,0,7.49-1.21,16.87,16.87,0,0,0,5.8-3.42,15.19,15.19,0,0,0,3.75-5.45,18.76,18.76,0,0,0,1.34-7.24,14.44,14.44,0,0,0-1.59-6.81A16.74,16.74,0,0,0,80.89,234.32Zm-3.22,17.36a8.61,8.61,0,0,1-2,3.38,7.74,7.74,0,0,1-2.79,1.75,9.28,9.28,0,0,1-3.08.54H62V236.53h6.36a11.37,11.37,0,0,1,5.23,1,8.4,8.4,0,0,1,4.53,5.77,14.71,14.71,0,0,1,.35,3A16.16,16.16,0,0,1,77.67,251.68Z"/><path class="cls-1" d="M122.69,274a16.4,16.4,0,0,1-9.17,2.36h-8.42V236.53h2.55c-.34-2.16-.6-4.32-.81-6.48H96.62v52.54h19.73a27.91,27.91,0,0,0,3-.25,20.73,20.73,0,0,0,4.53-1.14,21.62,21.62,0,0,0,3.47-1.65A65.2,65.2,0,0,1,122.69,274Z"/><path class="cls-1" d="M165.64,120.73a99.34,99.34,0,0,0-17.37,1.87c-9.47-10.13-19.34-24.92-26.32-39.43,6.92-29.35,3.46-33.51,1.93-35.47s-3.92-5.47-6.52-5.47a25.32,25.32,0,0,0-5.26.9c-3,1-4.58,3.32-5.87,6.34-3.66,8.62,1.36,23.31,6.52,34.64a351.94,351.94,0,0,1-19.59,56.06c-19.6,9.05-30,17.94-31,26.43-.34,3.09.38,7.62,5.77,11.69a8.26,8.26,0,0,0,5,1.7h0c4.53,0,9.1-3.49,14.39-11A148.29,148.29,0,0,0,99.7,146.82a246.4,246.4,0,0,1,45.66-14.72C153.54,140,160.86,144,167.14,144a13.7,13.7,0,0,0,11.48-6.21c3-4.23,3.68-8,2-11.26C178.65,122.64,173.74,120.73,165.64,120.73ZM73.1,171.17c-2.42-1.87-2.28-3.13-2.23-3.61.32-2.9,4.83-8,15.88-14.31C78.37,168.86,73.87,170.93,73.1,171.17ZM115.51,51.64c.22-.07,5.41,5.74.5,16.77C108.63,60.81,115,51.82,115.51,51.64Zm-10.69,83.57a373.78,373.78,0,0,0,13.83-39.44,178.55,178.55,0,0,0,19.77,28.91A256.12,256.12,0,0,0,104.82,135.21Zm66.73-2.5c-1.59,2.25-5,2.3-6.26,2.3-2.76,0-3.79-1.65-8-4.92a73.86,73.86,0,0,1,9.37-.56c4.6,0,5.44.68,6.08,1A8.12,8.12,0,0,1,171.55,132.72Z"/><path class="cls-1" d="M240,151.21a5.2,5.2,0,0,0-5.18,5.22v19.07a66.81,66.81,0,0,0-95,1.55,68,68,0,0,0-18.92,47.25,5.18,5.18,0,1,0,10.36,0c0-31.72,25.52-57.43,57-57.42a56.76,56.76,0,0,1,42,18.65l-22.94,7.71a5.24,5.24,0,0,0-3.28,6.61,5.18,5.18,0,0,0,6.56,3.31l31.07-10.44a5.22,5.22,0,0,0,3.54-5V156.44A5.2,5.2,0,0,0,240,151.21Z"/><path class="cls-1" d="M250.34,219.09a5.2,5.2,0,0,0-5.18,5.22c0,31.72-25.52,57.43-57,57.42a56.76,56.76,0,0,1-42-18.65l22.94-7.71a5.24,5.24,0,0,0,3.28-6.61,5.18,5.18,0,0,0-6.56-3.31l-31.07,10.44a5.22,5.22,0,0,0-3.54,5v31.33a5.18,5.18,0,1,0,10.36,0V273.11a66.81,66.81,0,0,0,95-1.55,68,68,0,0,0,18.92-47.25A5.2,5.2,0,0,0,250.34,219.09Z"/></svg>