<svg id="Слой_1" data-name="Слой 1" xmlns="http://www.w3.org/2000/svg" viewBox="0 0 410 371"><defs><style>.cls-1{fill:#fff;}</style></defs><title>Монтажная область 3</title><path class="cls-1" d="M237,148.4a5.19,5.19,0,0,0-5.18,5.19v19A67.2,67.2,0,0,0,117.87,221.1a5.18,5.18,0,1,0,10.36,0,56.94,56.94,0,0,1,99-38.56l-22.94,7.67a5.2,5.2,0,0,0,3.27,9.87l31.07-10.39a5.19,5.19,0,0,0,3.54-4.94V153.59A5.19,5.19,0,0,0,237,148.4Z"/><path class="cls-1" d="M247.34,215.91a5.19,5.19,0,0,0-5.18,5.19,56.94,56.94,0,0,1-99,38.56L166.11,252a5.2,5.2,0,0,0-3.27-9.87L131.76,252.5a5.19,5.19,0,0,0-3.54,4.94v31.16a5.18,5.18,0,1,0,10.36,0v-19A67.2,67.2,0,0,0,252.51,221.1,5.18,5.18,0,0,0,247.34,215.91Z"/><path class="cls-1" d="M181.2,117.57A20.61,20.61,0,0,1,183.1,106L168.86,92.43a4.75,4.75,0,0,0-3.51-1.33,4.85,4.85,0,0,0-3.4,1.58l-47.4,52-23-23a4.83,4.83,0,0,0-6.56-.27L10.68,184.92V15.53c0-1.05.16-4.49,2.24-4.49H151.29a7.49,7.49,0,0,0-.28,1.9V69.26h56.17a7.43,7.43,0,0,0,1.89-.28c0,.07,0,.1,0,.17v8.2a23,23,0,0,1,9.68-1.09V69.16c0-3.72-.45-6.47-2.67-8.69L187.94,32.24,163.52,7.74,159.79,4a9.14,9.14,0,0,0-6.43-2.67H12.92C7.18,1.33,1,5.78,1,15.53V273.06c0,4.06,4.07,8,8.89,9.27.24.06.47.16.73.2a11.76,11.76,0,0,0,2.3.23H119.4v-8c0-.43,0-.85.07-1.28l-.33-.41H12.92a2.78,2.78,0,0,1-1-.24,2.22,2.22,0,0,1-1.28-2V200.27h94.26a63.54,63.54,0,0,1,3.92-9.7H19l68.93-58.83,34.76,34.86c1.28-1.41,2.6-2.79,4-4.12q1.38-1.39,2.85-2.71l-8.15-8.17,44.36-48.72ZM160.69,18.63l20.56,20.62,20.26,20.31H160.69Z"/><path class="cls-1" d="M63.2,250.88c-.09,2.16-.83,3.71-2.22,4.61a10.14,10.14,0,0,1-5.59,1.36,14.46,14.46,0,0,1-3-.33q-1.59-.33-3-.76c-1-.29-1.86-.6-2.68-.93a9.87,9.87,0,0,1-1.89-1l-3.37,5.37A14.61,14.61,0,0,0,44.68,261q1.92.79,4,1.43a28.88,28.88,0,0,0,4,.93,22.94,22.94,0,0,0,3.41.3,28.21,28.21,0,0,0,5.66-.56,13.42,13.42,0,0,0,4.86-2A10.34,10.34,0,0,0,70,257.36a12.22,12.22,0,0,0,1.26-5.8V213.47H63.2Z"/><path class="cls-1" d="M104,237.59l-.14.15a7.25,7.25,0,0,1-2.61,1.63,8.73,8.73,0,0,1-2.88.5H91.06V220.5h6a10.69,10.69,0,0,1,4.9,1l.24.14q-.11-3.26.09-6.44a19.5,19.5,0,0,0-5.09-.69h-14v48.89h7.94V245.71h5.89a20.82,20.82,0,0,0,7-1.13c.5-.18,1-.37,1.44-.59C104.86,241.87,104.37,239.74,104,237.59Z"/><path class="cls-1" d="M61.82,116A27,27,0,1,0,34.87,89,27,27,0,0,0,61.82,116Zm0-44.34A17.32,17.32,0,1,1,44.55,89,17.31,17.31,0,0,1,61.82,71.69Z"/><path class="cls-1" d="M406.41,133.39l-4-4L350.21,77l-4-4a9.77,9.77,0,0,0-6.87-2.85H189.24c-6.13,0-12.74,4.75-12.74,15.18v57.19a69.17,69.17,0,0,1,7.5-.42c1,0,1.9,0,2.84.07V85.36c0-1.13.17-4.8,2.39-4.8H337.14a8,8,0,0,0-.3,2V142.8h60a7.9,7.9,0,0,0,2-.3c0,.08,0,.11,0,.19V272.46H247.42a60.13,60.13,0,0,1-5.21,5.5,69.33,69.33,0,0,1-5.41,4.87H398.91v75.4a2.38,2.38,0,0,1-1.37,2.15,3,3,0,0,1-1,.25H189.24a3,3,0,0,1-1-.25,2.38,2.38,0,0,1-1.37-2.15V300a71.59,71.59,0,0,1-10.34-1.06v61.68c0,4.34,4.36,8.57,9.51,9.91.26.07.51.17.78.22a12.57,12.57,0,0,0,2.46.25H396.52a12.58,12.58,0,0,0,2.46-.25c.27-.05.52-.15.78-.22,5.15-1.33,9.51-5.57,9.51-9.91V142.68C409.26,138.7,408.78,135.77,406.41,133.39Zm-59.22-1V88.68l43.63,43.75Z"/><path class="cls-1" d="M256.89,302.25a17.77,17.77,0,0,0-5.83-3.19,21,21,0,0,0-6.57-1.06h-15v52.26H238V331.39h6.29a22.26,22.26,0,0,0,7.49-1.2,16.89,16.89,0,0,0,5.8-3.4,15.11,15.11,0,0,0,3.75-5.43,18.57,18.57,0,0,0,1.34-7.2,14.3,14.3,0,0,0-1.59-6.77A16.66,16.66,0,0,0,256.89,302.25Zm-3.22,17.27a8.56,8.56,0,0,1-2,3.37,7.75,7.75,0,0,1-2.79,1.74,9.33,9.33,0,0,1-3.08.53H238v-20.7h6.36a11.42,11.42,0,0,1,5.23,1,8.36,8.36,0,0,1,4.53,5.74,14.56,14.56,0,0,1,.35,2.94A16,16,0,0,1,253.67,319.51Z"/><path class="cls-1" d="M308.16,305.65a24,24,0,0,0-8.28-5.57A29.79,29.79,0,0,0,288.32,298h-15.7v52.26h19.73a28.06,28.06,0,0,0,3-.25,20.83,20.83,0,0,0,4.53-1.14,23.69,23.69,0,0,0,5.13-2.66,18,18,0,0,0,4.77-4.86,27.45,27.45,0,0,0,3.5-7.66,38.49,38.49,0,0,0,1.38-11,26.3,26.3,0,0,0-1.62-9.11A23,23,0,0,0,308.16,305.65ZM302,338.48Q298.16,344,289.53,344h-8.42V304.44h5A26,26,0,0,1,296,306a15.86,15.86,0,0,1,6,4.19,13.82,13.82,0,0,1,3,5.78,27.21,27.21,0,0,1,.78,6.45Q305.79,332.95,302,338.48Z"/><polygon class="cls-1" points="327.01 350.25 335.63 350.25 335.63 326.71 357.42 326.71 357.42 320.9 335.63 320.9 335.63 304.45 359.6 304.45 359.6 298 327.01 298 327.01 350.25"/><path class="cls-1" d="M356.64,195.06c-2-3.88-6.9-5.78-15-5.78a99.86,99.86,0,0,0-17.37,1.86c-9.47-10.07-19.34-24.78-26.32-39.22,6.92-29.19,3.46-33.33,1.93-35.28s-3.92-5.44-6.52-5.44a25.45,25.45,0,0,0-5.26.89c-3,1-4.58,3.3-5.87,6.3-3.66,8.57,1.36,23.19,6.52,34.45a348.77,348.77,0,0,1-19.59,55.75c-2.24,1-4.35,2.06-6.35,3.08a100,100,0,0,1,1.43,12.93,59.42,59.42,0,0,1-.85,12.62,147.48,147.48,0,0,0,12.3-22,247.35,247.35,0,0,1,45.66-14.64c8.17,7.87,15.49,11.85,21.78,11.85a13.72,13.72,0,0,0,11.48-6.18C357.62,202.05,358.31,198.29,356.64,195.06Zm-65.13-74.5c.22-.07,5.41,5.71.5,16.68C284.63,129.67,291,120.73,291.51,120.56Zm-10.69,83.12a370.41,370.41,0,0,0,13.83-39.23,177.55,177.55,0,0,0,19.77,28.75A257.13,257.13,0,0,0,280.82,203.67Zm66.73-2.48c-1.59,2.24-5,2.29-6.26,2.29-2.76,0-3.79-1.64-8-4.9a74.26,74.26,0,0,1,9.37-.56c4.6,0,5.44.68,6.08,1A8.05,8.05,0,0,1,347.55,201.19Z"/></svg>