<svg id="Слой_1" data-name="Слой 1" xmlns="http://www.w3.org/2000/svg" viewBox="0 0 410 371"><defs><style>.cls-1{fill:#fff;}</style></defs><title>Монтажная область 2</title><path class="cls-1" d="M150.33,73.17h56.11a7,7,0,0,0,1.89-.3c0,.08,0,.11,0,.19v9.39a10.75,10.75,0,0,1,1.84-.7,11.15,11.15,0,0,1,7.82.93V73.06c0-4-.44-6.87-2.66-9.23l-3.73-4-48.79-52-3.73-4A8.86,8.86,0,0,0,152.68,1H12.4C6.67,1,.5,5.72.5,16.08V289.69c0,4.31,4.07,8.52,8.88,9.85.24.07.47.16.72.22a11.07,11.07,0,0,0,2.3.25H119.48v-8.5c0-.61,0-1.22.09-1.81H12.4a2.65,2.65,0,0,1-1-.25,2.38,2.38,0,0,1-1.28-2.13V212.36h97a58.43,58.43,0,0,1,2.24-10.31H10.17v-186c0-1.12.16-4.77,2.24-4.77H150.61a8.43,8.43,0,0,0-.28,2ZM160,19.38l40.77,43.48H160Z"/><polygon class="cls-1" points="76.51 227.44 67.19 248.58 66.53 248.58 57.94 227.44 48.89 227.44 62.04 254.15 49.68 279.38 58.87 279.38 67.19 259.79 67.86 259.79 75.59 279.38 84.77 279.38 72.42 254.15 85.57 227.44 76.51 227.44"/><path class="cls-1" d="M126.07,276.89c.29-.32.61-.62.92-.93v-.55c-.76-.8-1.49-1.62-2.2-2.45H104.6V227.44H96.53v51.94h27.19A20.31,20.31,0,0,1,126.07,276.89Z"/><path class="cls-1" d="M125.64,171.12H87.5V160.81h49.18a81.33,81.33,0,0,1,17.48-10.31H87.5V140.19h91.83V144c2.06-.18,4.12-.29,6.17-.29,1.17,0,2.34,0,3.5.09V88.64H87.5V68h-58V181.43h88.74A58.84,58.84,0,0,1,125.64,171.12ZM87.5,98.95h91.83v10.31H87.5Zm0,20.62h91.83v10.31H87.5Zm-9.67,51.55H39.17V160.81H77.83Zm0-20.62H39.17V140.19H77.83Zm0-20.62H39.17V119.57H77.83Zm0-20.62H39.17V98.95H77.83Zm0-20.62H39.17V78.33H77.83Z"/><path class="cls-1" d="M408.41,135l-4-4L352.21,78.83l-4-4A9.78,9.78,0,0,0,341.35,72H191.24c-6.13,0-12.74,4.74-12.74,15.13v57a69.35,69.35,0,0,1,7.5-.42c1,0,1.9,0,2.84.07V87.13c0-1.12.17-4.79,2.39-4.79h17.33a10.78,10.78,0,0,1,1.6-.59,11,11,0,0,1,7.11.59H339.14a8,8,0,0,0-.3,2v60h60a7.92,7.92,0,0,0,2-.3c0,.08,0,.11,0,.19V273.72H249.42a60,60,0,0,1-5.21,5.49,69.27,69.27,0,0,1-5.41,4.86H400.91v75.19a2.38,2.38,0,0,1-1.37,2.14,3,3,0,0,1-1,.25H191.24a3,3,0,0,1-1-.25,2.37,2.37,0,0,1-1.37-2.14V301.19a71.78,71.78,0,0,1-10.34-1.06v61.52c0,4.33,4.36,8.55,9.51,9.88.26.07.51.17.78.22a12.61,12.61,0,0,0,2.46.25H398.52a12.61,12.61,0,0,0,2.46-.25c.27-.05.52-.15.78-.22,5.15-1.33,9.51-5.55,9.51-9.88V144.3C411.26,140.33,410.78,137.41,408.41,135Zm-59.22-1V90.44l43.63,43.63Z"/><path class="cls-1" d="M258.89,303.43a17.78,17.78,0,0,0-5.83-3.18,21,21,0,0,0-6.57-1.06h-15v52.12H240V332.5h6.29a22.31,22.31,0,0,0,7.49-1.2,16.9,16.9,0,0,0,5.8-3.39,15.07,15.07,0,0,0,3.75-5.41,18.48,18.48,0,0,0,1.34-7.18,14.23,14.23,0,0,0-1.59-6.76A16.63,16.63,0,0,0,258.89,303.43Zm-3.22,17.22a8.53,8.53,0,0,1-2,3.36,7.75,7.75,0,0,1-2.79,1.73,9.35,9.35,0,0,1-3.08.53H240V305.63h6.36a11.45,11.45,0,0,1,5.23,1,8.57,8.57,0,0,1,3.08,2.54,8.47,8.47,0,0,1,1.45,3.18,14.48,14.48,0,0,1,.35,2.93A15.91,15.91,0,0,1,255.67,320.65Z"/><path class="cls-1" d="M310.16,306.83a24,24,0,0,0-8.28-5.55,29.86,29.86,0,0,0-11.56-2.08h-15.7v52.12h19.73a28.13,28.13,0,0,0,3-.25,20.87,20.87,0,0,0,4.53-1.13,23.71,23.71,0,0,0,5.13-2.65,18,18,0,0,0,4.77-4.85,27.34,27.34,0,0,0,3.5-7.64,38.29,38.29,0,0,0,1.38-11,26.17,26.17,0,0,0-1.62-9.09A23,23,0,0,0,310.16,306.83ZM304,339.57q-3.82,5.52-12.44,5.51h-8.42V305.62h5a26,26,0,0,1,9.9,1.59,15.86,15.86,0,0,1,6,4.17,13.77,13.77,0,0,1,3,5.76,27.07,27.07,0,0,1,.78,6.43Q307.79,334.05,304,339.57Z"/><polygon class="cls-1" points="329.01 351.31 337.63 351.31 337.63 327.83 359.42 327.83 359.42 322.03 337.63 322.03 337.63 305.63 361.6 305.63 361.6 299.19 329.01 299.19 329.01 351.31"/><path class="cls-1" d="M358.64,196.53c-2-3.87-6.9-5.77-15-5.77a100.12,100.12,0,0,0-17.37,1.85c-9.47-10-19.34-24.71-26.32-39.11,6.92-29.12,3.46-33.24,1.93-35.18s-3.92-5.43-6.52-5.43a25.51,25.51,0,0,0-5.26.89c-3,1-4.58,3.29-5.87,6.28-3.66,8.55,1.36,23.13,6.52,34.36A347.2,347.2,0,0,1,271.17,210c-2.24,1-4.35,2.05-6.35,3.08A99.46,99.46,0,0,1,266.25,226a59.1,59.1,0,0,1-.85,12.59,147,147,0,0,0,12.3-21.95A247.83,247.83,0,0,1,323.36,202c8.17,7.85,15.49,11.82,21.78,11.82a13.73,13.73,0,0,0,11.48-6.16C359.62,203.51,360.31,199.75,358.64,196.53Zm-65.13-74.3c.22-.07,5.41,5.69.5,16.63C286.63,131.32,293,122.41,293.51,122.23Zm-10.69,82.89A368.74,368.74,0,0,0,296.65,166a177.06,177.06,0,0,0,19.77,28.68A257.65,257.65,0,0,0,282.82,205.13Zm66.73-2.48c-1.59,2.23-5,2.28-6.26,2.28-2.76,0-3.79-1.64-8-4.88a74.46,74.46,0,0,1,9.37-.56c4.6,0,5.44.68,6.08,1A8,8,0,0,1,349.55,202.65Z"/><path class="cls-1" d="M239,150a5.18,5.18,0,0,0-5.18,5.18V174.1A67.19,67.19,0,0,0,119.87,222.5a5.18,5.18,0,1,0,10.36,0,57,57,0,0,1,99-38.45l-22.94,7.65a5.18,5.18,0,0,0,3.27,9.84l31.07-10.36a5.18,5.18,0,0,0,3.54-4.93V155.18A5.18,5.18,0,0,0,239,150Z"/><path class="cls-1" d="M249.34,217.32a5.18,5.18,0,0,0-5.18,5.18,57,57,0,0,1-99,38.45l22.94-7.65a5.18,5.18,0,1,0-3.27-9.84l-31.07,10.36a5.18,5.18,0,0,0-3.54,4.93v31.07a5.18,5.18,0,0,0,10.36,0V270.91A67.19,67.19,0,0,0,254.51,222.5,5.18,5.18,0,0,0,249.34,217.32Z"/></svg>