<svg id="Слой_1" data-name="Слой 1" xmlns="http://www.w3.org/2000/svg" viewBox="0 0 410 371"><defs><style>.cls-1{fill:#fff;}</style></defs><title>Монтажная область 7</title><path class="cls-1" d="M160.84,72.61h60a7.9,7.9,0,0,0,2-.3c0,.08,0,.11,0,.19V75a10.73,10.73,0,0,1,10.34,2.6V72.5c0-4-.48-6.91-2.84-9.29l-4-4L174.21,6.85l-4-4A9.77,9.77,0,0,0,163.35,0H13.24C7.11,0,.5,4.75.5,15.18V290.44c0,4.34,4.36,8.57,9.51,9.91.26.07.51.17.78.22a12.57,12.57,0,0,0,2.46.25H126.12v-8.69c0-.57,0-1.13.07-1.68H13.24a3,3,0,0,1-1-.25A2.38,2.38,0,0,1,10.84,288V212.64h95.87a61.4,61.4,0,0,1,2-10.37H10.84V15.18c0-1.13.17-4.8,2.39-4.8H161.14a8,8,0,0,0-.3,2Zm10.34-54.12,43.63,43.75H171.19Z"/><path class="cls-1" d="M80.89,232.06a17.77,17.77,0,0,0-5.83-3.19,21,21,0,0,0-6.57-1.06h-15v52.26H62V261.2h6.29a22.26,22.26,0,0,0,7.49-1.2,16.89,16.89,0,0,0,5.8-3.4,15.11,15.11,0,0,0,3.75-5.42,18.57,18.57,0,0,0,1.34-7.2,14.3,14.3,0,0,0-1.59-6.77A16.66,16.66,0,0,0,80.89,232.06Zm-3.22,17.27a8.56,8.56,0,0,1-2,3.37,7.75,7.75,0,0,1-2.79,1.74,9.33,9.33,0,0,1-3.08.53H62v-20.7h6.36a11.42,11.42,0,0,1,5.23,1A8.36,8.36,0,0,1,78.1,241a14.56,14.56,0,0,1,.35,2.94A16,16,0,0,1,77.67,249.33Z"/><path class="cls-1" d="M122.69,271.48a16.46,16.46,0,0,1-9.17,2.35h-8.42V234.25h2.55c-.34-2.14-.6-4.3-.81-6.45H96.62v52.26h19.73a28.06,28.06,0,0,0,3-.25,20.83,20.83,0,0,0,4.53-1.14,21.67,21.67,0,0,0,3.47-1.64A64.94,64.94,0,0,1,122.69,271.48Z"/><path class="cls-1" d="M165.64,119.08a99.86,99.86,0,0,0-17.37,1.86c-9.47-10.07-19.34-24.78-26.32-39.22,6.92-29.19,3.46-33.33,1.93-35.28S120,41,117.37,41a25.45,25.45,0,0,0-5.26.89c-3,1-4.58,3.3-5.87,6.3-3.66,8.57,1.36,23.19,6.52,34.45A348.77,348.77,0,0,1,93.17,138.4c-19.6,9-30,17.85-31,26.28-.34,3.07.38,7.58,5.77,11.63A8.29,8.29,0,0,0,73,178h0c4.53,0,9.1-3.47,14.39-10.93A147.27,147.27,0,0,0,99.7,145a247.36,247.36,0,0,1,45.66-14.64c8.17,7.87,15.49,11.85,21.78,11.85a13.72,13.72,0,0,0,11.48-6.18c3-4.21,3.68-8,2-11.2C178.65,121,173.74,119.08,165.64,119.08ZM73.1,169.25c-2.42-1.86-2.28-3.12-2.23-3.59.32-2.88,4.83-8,15.88-14.23C78.37,166.95,73.87,169,73.1,169.25ZM115.51,50.37c.22-.07,5.41,5.71.5,16.68C108.63,59.48,115,50.54,115.51,50.37Zm-10.69,83.12a370.41,370.41,0,0,0,13.83-39.23A177.55,177.55,0,0,0,138.42,123,257.14,257.14,0,0,0,104.82,133.49ZM171.55,131c-1.59,2.24-5,2.29-6.26,2.29-2.76,0-3.79-1.64-8-4.9a74.26,74.26,0,0,1,9.37-.56c4.6,0,5.44.68,6.08,1A8.06,8.06,0,0,1,171.55,131Z"/><path class="cls-1" d="M409.16,133.4l-4-4L353,77h0l-4-4a9.75,9.75,0,0,0-6.87-2.86H192A12.77,12.77,0,0,0,179.24,83v62.27a72.31,72.31,0,0,1,9.76-.7l.59,0V83a2.4,2.4,0,0,1,2.39-2.4H339.89a8,8,0,0,0-.3,2v60.2h60a7.94,7.94,0,0,0,2-.3v130H249.14a62.35,62.35,0,0,1-5.09,5.34,71.73,71.73,0,0,1-5.58,5H401.66v75.39a2.4,2.4,0,0,1-2.39,2.4H192a2.4,2.4,0,0,1-2.39-2.4V300.65l-.59,0a74.25,74.25,0,0,1-9.76-.67v58.23A12.77,12.77,0,0,0,192,371H399.26A12.77,12.77,0,0,0,412,358.23V140.28A9.7,9.7,0,0,0,409.16,133.4Zm-59.22-1V88.68l43.63,43.75Z"/><path class="cls-1" d="M241.73,331.39H248a22.26,22.26,0,0,0,7.49-1.2,16.89,16.89,0,0,0,5.8-3.4,15.11,15.11,0,0,0,3.75-5.42,18.57,18.57,0,0,0,1.34-7.2,14.3,14.3,0,0,0-1.59-6.77,16.59,16.59,0,0,0-4.17-5.14,17.77,17.77,0,0,0-5.83-3.19,21,21,0,0,0-6.57-1.06h-15v52.26h8.49Zm0-26.94h6.36a11.42,11.42,0,0,1,5.23,1,8.36,8.36,0,0,1,4.53,5.74,14.56,14.56,0,0,1,.35,2.94,16,16,0,0,1-.78,5.35,8.56,8.56,0,0,1-2,3.37,7.75,7.75,0,0,1-2.79,1.74,9.33,9.33,0,0,1-3.08.53h-7.78Z"/><path class="cls-1" d="M284.52,331.39h6.29a22.26,22.26,0,0,0,7.49-1.2,16.89,16.89,0,0,0,5.8-3.4,15.11,15.11,0,0,0,3.75-5.42,18.57,18.57,0,0,0,1.34-7.2,14.3,14.3,0,0,0-1.59-6.77,16.59,16.59,0,0,0-4.17-5.14,17.77,17.77,0,0,0-5.83-3.19A21,21,0,0,0,291,298H276v52.26h8.49V331.39Zm0-26.94h6.36a11.42,11.42,0,0,1,5.23,1,8.36,8.36,0,0,1,4.53,5.74,14.56,14.56,0,0,1,.35,2.94,16,16,0,0,1-.78,5.35,8.56,8.56,0,0,1-2,3.37,7.75,7.75,0,0,1-2.79,1.74,9.33,9.33,0,0,1-3.08.53h-7.78Z"/><polygon class="cls-1" points="331.54 350.25 340.1 350.25 340.1 303.81 355.65 303.81 355.65 298 315.98 298 315.98 303.81 331.54 303.81 331.54 350.25"/><path class="cls-1" d="M251.66,163.54a5.09,5.09,0,0,0-3.54,1.44v6.57c.59.66,1.17,1.34,1.74,2a5.12,5.12,0,0,0,1.81.34,5.19,5.19,0,0,0,0-10.37Z"/><ellipse class="cls-1" cx="262" cy="179.1" rx="5.17" ry="5.19"/><ellipse class="cls-1" cx="272.34" cy="168.73" rx="5.17" ry="5.19"/><path class="cls-1" d="M264.4,204.42a5.17,5.17,0,0,0-2.4-9.75c-.15,0-.29,0-.43,0A87.38,87.38,0,0,1,264.4,204.42Z"/><ellipse class="cls-1" cx="272.34" cy="210.22" rx="5.17" ry="5.19"/><ellipse class="cls-1" cx="272.34" cy="189.48" rx="5.17" ry="5.19"/><ellipse class="cls-1" cx="282.69" cy="179.1" rx="5.17" ry="5.19"/><ellipse class="cls-1" cx="293.03" cy="168.73" rx="5.17" ry="5.19"/><ellipse class="cls-1" cx="282.69" cy="199.85" rx="5.17" ry="5.19"/><ellipse class="cls-1" cx="293.03" cy="210.22" rx="5.17" ry="5.19"/><ellipse class="cls-1" cx="293.03" cy="189.48" rx="5.17" ry="5.19"/><ellipse class="cls-1" cx="303.38" cy="179.1" rx="5.17" ry="5.19"/><ellipse class="cls-1" cx="313.72" cy="168.73" rx="5.17" ry="5.19"/><ellipse class="cls-1" cx="303.38" cy="199.85" rx="5.17" ry="5.19"/><ellipse class="cls-1" cx="313.72" cy="210.22" rx="5.17" ry="5.19"/><ellipse class="cls-1" cx="313.72" cy="189.48" rx="5.17" ry="5.19"/><ellipse class="cls-1" cx="324.07" cy="179.1" rx="5.17" ry="5.19"/><ellipse class="cls-1" cx="334.41" cy="168.73" rx="5.17" ry="5.19"/><ellipse class="cls-1" cx="324.07" cy="199.85" rx="5.17" ry="5.19"/><ellipse class="cls-1" cx="334.41" cy="210.22" rx="5.17" ry="5.19"/><ellipse class="cls-1" cx="334.41" cy="189.48" rx="5.17" ry="5.19"/><path class="cls-1" d="M355.1,148h-56.9V137.61a5.17,5.17,0,1,0-10.34,0V148H248.11v10.37h8.71a5.17,5.17,0,1,0,10.34,0h10.34a5.17,5.17,0,1,0,10.34,0h10.34a5.17,5.17,0,1,0,10.34,0H318.9a5.17,5.17,0,1,0,10.34,0h10.34a5.18,5.18,0,0,0,5.17,5.19v10.37a5.19,5.19,0,0,0,0,10.37v10.37a5.19,5.19,0,0,0,0,10.37v10.37a5.18,5.18,0,0,0-5.17,5.19H329.24a5.17,5.17,0,1,0-10.34,0H308.55a5.17,5.17,0,1,0-10.34,0H287.86a5.17,5.17,0,1,0-10.34,0H267.17a5.14,5.14,0,0,0-.62-2.41c.13,1.47.23,2.94.3,4.41a58.92,58.92,0,0,1-6.71,30.08c-.43,1.31-.9,2.59-1.41,3.85a5.14,5.14,0,0,0,2.52-2.15l14-23.42H310.8l14,23.42a5.18,5.18,0,1,0,8.87-5.34L322.86,231H355.1Z"/><path class="cls-1" d="M240,149.4a5.19,5.19,0,0,0-5.18,5.19v19A67.2,67.2,0,0,0,120.87,222.1a5.18,5.18,0,1,0,10.36,0,56.94,56.94,0,0,1,99-38.56l-22.94,7.67a5.2,5.2,0,0,0,3.27,9.87l31.07-10.39a5.19,5.19,0,0,0,3.54-4.94V154.6A5.19,5.19,0,0,0,240,149.4Z"/><path class="cls-1" d="M250.34,216.91a5.19,5.19,0,0,0-5.18,5.19,56.94,56.94,0,0,1-99,38.56L169.11,253a5.2,5.2,0,0,0-3.27-9.87l-31.07,10.39a5.19,5.19,0,0,0-3.54,4.94v31.16a5.18,5.18,0,1,0,10.36,0v-19A67.2,67.2,0,0,0,255.51,222.1,5.18,5.18,0,0,0,250.34,216.91Z"/></svg>