<svg id="Слой_1" data-name="Слой 1" xmlns="http://www.w3.org/2000/svg" viewBox="0 0 410 371"><defs><style>.cls-1{fill:#fff;}</style></defs><title>Монтажная область 6</title><path class="cls-1" d="M161.84,73h60a7.86,7.86,0,0,0,2-.3c0,.08,0,.11,0,.19v2.56a10.69,10.69,0,0,1,10.34,2.61V72.89c0-4-.48-7-2.84-9.34l-4-4L175.21,6.89l-4-4A9.74,9.74,0,0,0,164.35,0H14.24C8.11,0,1.5,4.78,1.5,15.26V292c0,4.36,4.36,8.62,9.51,10,.26.07.51.17.78.22a12.51,12.51,0,0,0,2.46.25H127.12v-8.74c0-.57,0-1.13.07-1.69H14.24a3,3,0,0,1-1-.26,2.39,2.39,0,0,1-1.37-2.16V213.8h95.87a62,62,0,0,1,2-10.43H11.84V15.26c0-1.13.17-4.83,2.39-4.83H162.14a8.09,8.09,0,0,0-.3,2Zm10.34-54.41,43.63,44H172.19Z"/><path class="cls-1" d="M81.89,233.32a17.74,17.74,0,0,0-5.83-3.21A20.88,20.88,0,0,0,69.48,229h-15v52.54H63v-19h6.29a22.15,22.15,0,0,0,7.49-1.21,16.87,16.87,0,0,0,5.8-3.42,15.19,15.19,0,0,0,3.75-5.45,18.76,18.76,0,0,0,1.34-7.24,14.44,14.44,0,0,0-1.59-6.81A16.74,16.74,0,0,0,81.89,233.32Zm-3.22,17.36a8.61,8.61,0,0,1-2,3.38,7.74,7.74,0,0,1-2.79,1.75,9.28,9.28,0,0,1-3.08.54H63V235.53h6.36a11.37,11.37,0,0,1,5.23,1,8.4,8.4,0,0,1,4.53,5.77,14.71,14.71,0,0,1,.35,3A16.16,16.16,0,0,1,78.67,250.68Z"/><path class="cls-1" d="M123.69,273a16.4,16.4,0,0,1-9.17,2.36h-8.42V235.53h2.55c-.34-2.16-.6-4.32-.81-6.48H97.62v52.54h19.73a27.91,27.91,0,0,0,3-.25,20.73,20.73,0,0,0,4.53-1.14,21.62,21.62,0,0,0,3.47-1.65A65.2,65.2,0,0,1,123.69,273Z"/><path class="cls-1" d="M166.64,119.73a99.34,99.34,0,0,0-17.37,1.87c-9.47-10.13-19.34-24.92-26.32-39.43,6.92-29.35,3.46-33.51,1.93-35.47s-3.92-5.47-6.52-5.47a25.32,25.32,0,0,0-5.26.9c-3,1-4.58,3.32-5.87,6.34-3.66,8.62,1.36,23.31,6.52,34.64a351.94,351.94,0,0,1-19.59,56.06c-19.6,9.05-30,17.94-31,26.43-.34,3.09.38,7.62,5.77,11.69a8.26,8.26,0,0,0,5,1.7h0c4.53,0,9.1-3.49,14.39-11a148.29,148.29,0,0,0,12.33-22.17,246.4,246.4,0,0,1,45.66-14.72C154.54,139,161.86,143,168.14,143a13.7,13.7,0,0,0,11.48-6.21c3-4.23,3.68-8,2-11.26C179.65,121.64,174.74,119.73,166.64,119.73ZM74.1,170.17c-2.42-1.87-2.28-3.13-2.23-3.61.32-2.9,4.83-8,15.88-14.31C79.37,167.86,74.87,169.93,74.1,170.17ZM116.51,50.64c.22-.07,5.41,5.74.5,16.77C109.63,59.81,116,50.82,116.51,50.64Zm-10.69,83.57a373.78,373.78,0,0,0,13.83-39.44,178.55,178.55,0,0,0,19.77,28.91A256.12,256.12,0,0,0,105.82,134.21Zm66.73-2.5c-1.59,2.25-5,2.3-6.26,2.3-2.76,0-3.79-1.65-8-4.92a73.86,73.86,0,0,1,9.37-.56c4.6,0,5.44.68,6.08,1A8.12,8.12,0,0,1,172.55,131.72Z"/><path class="cls-1" d="M407.17,133.91,377.31,103.8,351.4,77.68l-4-4a9.67,9.67,0,0,0-6.82-2.85h-149C185.56,70.84,179,75.58,179,86v57a73.36,73.36,0,0,1,9-.59c.43,0,.84,0,1.27,0V86c0-1.12.17-4.79,2.38-4.79H338.43a8,8,0,0,0-.3,2v60.08h59.59a7.84,7.84,0,0,0,2-.3c0,.08,0,.11,0,.19v65.69L357.07,168a5,5,0,0,0-3.72-1.42,5.14,5.14,0,0,0-3.61,1.68l-50.28,55.51-24.35-24.55a5.1,5.1,0,0,0-7-.28l-3.41,2.93A99.66,99.66,0,0,1,267,213.56l4.24-3.63,52.94,53.38a5.1,5.1,0,0,0,7.26,0,5.2,5.2,0,0,0,0-7.32l-24.68-24.88,47.06-52,45.94,44v49.53H250.85a63.4,63.4,0,0,1-6.42,7c-1.14,1.15-2.34,2.26-3.57,3.34H399.73v75.23a2.38,2.38,0,0,1-1.36,2.14,2.83,2.83,0,0,1-1,.25H191.64a2.94,2.94,0,0,1-1-.25,2.37,2.37,0,0,1-1.36-2.14v-55c-.42,0-.85,0-1.27,0a75.78,75.78,0,0,1-9-.55v58c0,4.33,4.32,8.55,9.44,9.88.26.07.5.17.77.22a12.42,12.42,0,0,0,2.44.25H397.36a12.42,12.42,0,0,0,2.44-.25c.27-.05.52-.15.78-.22,5.11-1.33,9.42-5.55,9.42-9.88V143.18C410,139.21,409.52,136.27,407.17,133.91Zm-58.77-1V89.29l21.81,22,21.49,21.66Z"/><path class="cls-1" d="M245,337c-.1,2.31-.88,4-2.35,4.92a10.71,10.71,0,0,1-5.93,1.45,15.26,15.26,0,0,1-3.16-.35q-1.69-.36-3.23-.81c-1-.31-2-.64-2.84-1a10.45,10.45,0,0,1-2-1l-3.58,5.73a15.48,15.48,0,0,0,3.44,1.91q2,.85,4.25,1.52a30.5,30.5,0,0,0,4.28,1,24.21,24.21,0,0,0,3.61.32,29.77,29.77,0,0,0,6-.6,14.2,14.2,0,0,0,5.16-2.12,11,11,0,0,0,3.58-4,13.09,13.09,0,0,0,1.33-6.19V297.1H245Z"/><path class="cls-1" d="M293.3,302.4a17.61,17.61,0,0,0-5.79-3.18,20.73,20.73,0,0,0-6.52-1.06H266.11V350.3h8.42V331.48h6.25a22,22,0,0,0,7.44-1.2,16.74,16.74,0,0,0,5.75-3.39,15.08,15.08,0,0,0,3.72-5.41,18.62,18.62,0,0,0,1.33-7.18,14.33,14.33,0,0,0-1.58-6.76A16.68,16.68,0,0,0,293.3,302.4Zm-3.19,17.23a8.55,8.55,0,0,1-2,3.36,7.68,7.68,0,0,1-2.77,1.73,9.21,9.21,0,0,1-3.05.53h-7.72V304.59h6.31a11.28,11.28,0,0,1,5.19,1,8.34,8.34,0,0,1,4.49,5.73,14.6,14.6,0,0,1,.35,2.93A16,16,0,0,1,290.11,319.63Z"/><path class="cls-1" d="M329.2,329.22H338v12.88a3.5,3.5,0,0,1-1.76,1.2,16.78,16.78,0,0,1-2.49.67,23.52,23.52,0,0,1-2.6.35c-.87.07-1.56.11-2.07.11a10.17,10.17,0,0,1-4.81-1.2,12,12,0,0,1-4.07-3.68,19.05,19.05,0,0,1-2.81-6.37,38.7,38.7,0,0,1-1.09-9.2,36.12,36.12,0,0,1,1.12-9.2,17.59,17.59,0,0,1,2.91-6.12,10.6,10.6,0,0,1,4.21-3.36,12.56,12.56,0,0,1,4.95-1,11.48,11.48,0,0,1,4.49.92,10.07,10.07,0,0,1,3.86,3l5.83-5.24a19.13,19.13,0,0,0-6.52-4.24,21.47,21.47,0,0,0-7.86-1.41,20.72,20.72,0,0,0-8.49,1.73,19.41,19.41,0,0,0-6.84,5.06,23.82,23.82,0,0,0-4.56,8.31,41.55,41.55,0,0,0,0,23.17,23.64,23.64,0,0,0,4.56,8.35,19.1,19.1,0,0,0,6.81,5,21.09,21.09,0,0,0,8.53,1.7,31,31,0,0,0,4.67-.35,21.87,21.87,0,0,0,8.77-3.36,15.36,15.36,0,0,0,3.61-3.36V323.43H329.2Z"/><path class="cls-1" d="M228.45,153.87a18.28,18.28,0,0,1,33.39,10.48A18.49,18.49,0,0,1,255,178.72a73.33,73.33,0,0,1,4.94,9.2,28.85,28.85,0,0,0-16.41-52.4,28.54,28.54,0,0,0-24.24,13.57A85,85,0,0,1,228.45,153.87Z"/><path class="cls-1" d="M241,150.21a5.2,5.2,0,0,0-5.18,5.22v19.07a66.81,66.81,0,0,0-95,1.55,68,68,0,0,0-18.92,47.25,5.18,5.18,0,1,0,10.36,0c0-31.72,25.52-57.43,57-57.42a56.76,56.76,0,0,1,42,18.65l-22.94,7.71a5.24,5.24,0,0,0-3.28,6.61,5.18,5.18,0,0,0,6.56,3.31l31.07-10.44a5.22,5.22,0,0,0,3.54-5V155.44A5.2,5.2,0,0,0,241,150.21Z"/><path class="cls-1" d="M251.34,218.09a5.2,5.2,0,0,0-5.18,5.22c0,31.72-25.52,57.43-57,57.42a56.76,56.76,0,0,1-42-18.65l22.94-7.71a5.24,5.24,0,0,0,3.28-6.61,5.18,5.18,0,0,0-6.56-3.31l-31.07,10.44a5.22,5.22,0,0,0-3.54,5v31.33a5.18,5.18,0,1,0,10.36,0V272.11a66.81,66.81,0,0,0,95-1.55,68,68,0,0,0,18.92-47.25A5.2,5.2,0,0,0,251.34,218.09Z"/></svg>